<svg id="icon" xmlns="http://www.w3.org/2000/svg" width="28" height="28" viewBox="0 0 28 28">
  <g id="File">
    <g id="pdf_fill">
      <path id="MingCute" d="M28,0V28H0V0ZM14.692,27.134l-.013,0-.083.041-.022,0h0l-.018,0-.083-.041a.025.025,0,0,0-.027.006l0,.013-.02.5.006.024.013.014.121.086.017,0h0l.014,0,.121-.086.015-.019h0l0-.019-.02-.5a.025.025,0,0,0-.019-.021ZM15,27l-.016,0-.215.108-.012.012h0l0,.013.021.5.006.015h0l.01.008.234.108a.029.029,0,0,0,.033-.009l0-.016-.04-.717A.03.03,0,0,0,15,27Zm-.835,0a.027.027,0,0,0-.032.006l-.007.016-.04.717a.027.027,0,0,0,.02.027l.018,0,.234-.108.011-.009h0l0-.014.021-.5,0-.015h0l-.011-.01Z" fill="none"/>
      <path id="形状" d="M14,2V9.8a1.839,1.839,0,0,0,1.875,1.8H24v12A2.451,2.451,0,0,1,21.5,26H6.5A2.452,2.452,0,0,1,4,23.6V4.4A2.452,2.452,0,0,1,6.5,2ZM12.764,13.818A7.408,7.408,0,0,1,9.97,18.464a1.21,1.21,0,0,0,1.235,2.055,8.081,8.081,0,0,1,5.588,0,1.21,1.21,0,0,0,1.236-2.054,7.409,7.409,0,0,1-2.794-4.646A1.26,1.26,0,0,0,12.764,13.818ZM14,16.763l1.008,1.673H12.994ZM16.5,2.052a2.533,2.533,0,0,1,1.25.651L23.268,8a2.372,2.372,0,0,1,.678,1.2H16.5Z" fill="#fff" fill-rule="evenodd"/>
    </g>
  </g>
</svg>
