<svg id="icon" xmlns="http://www.w3.org/2000/svg" width="28" height="28" viewBox="0 0 28 28">
  <g id="Contact">
    <g id="mail_fill">
      <path id="MingCute" d="M28,0V28H0V0ZM14.692,27.134l-.013,0-.083.041-.022,0h0l-.018,0-.083-.041a.025.025,0,0,0-.027.006l0,.013-.02.5.006.024.013.014.121.086.017,0h0l.014,0,.121-.086.015-.019h0l0-.019-.02-.5a.025.025,0,0,0-.019-.021ZM15,27l-.016,0-.215.108-.012.012h0l0,.013.021.5.006.015h0l.01.008.234.108a.029.029,0,0,0,.033-.009l0-.016-.04-.717A.03.03,0,0,0,15,27Zm-.835,0a.027.027,0,0,0-.032.006l-.007.016-.04.717a.027.027,0,0,0,.02.027l.018,0,.234-.108.011-.009h0l0-.014.021-.5,0-.015h0l-.011-.01Z" fill="none"/>
      <path id="形状" d="M2.081,5.853,12.732,16.947a1.748,1.748,0,0,0,2.409.129l.137-.129L25.921,5.861a2.582,2.582,0,0,1,.07.421L26,6.5v15a2.461,2.461,0,0,1-2.221,2.493L23.6,24H4.4a2.443,2.443,0,0,1-2.393-2.313L2,21.5V6.5a2.618,2.618,0,0,1,.037-.438ZM23.6,4a2.321,2.321,0,0,1,.426.039l.2.048L14.005,14.738,3.778,4.085a2.305,2.305,0,0,1,.409-.075L4.4,4Z" fill="#fff"/>
    </g>
  </g>
</svg>
